<svg xmlns="http://www.w3.org/2000/svg" viewBox="0 0 26.25 261.89"><defs><style>.cls-1{fill:#4d4d4d;}</style></defs><g id="レイヤー_2" data-name="レイヤー 2"><g id="レイヤー_1-2" data-name="レイヤー 1"><path class="cls-1" d="M17.61,261.89H15.72l-8.2-17.78H9.45l7.21,15.61,7.21-15.61h1.89Z"/><path class="cls-1" d="M0,232.17v-1.78l26,10.67v1.86Z"/><path class="cls-1" d="M2,216.76a8.12,8.12,0,0,1,3-2.59A13,13,0,0,1,9,212.91a30,30,0,0,1,4.38-.33,30.37,30.37,0,0,1,4.41.33,13.12,13.12,0,0,1,4.06,1.26,8,8,0,0,1,3,2.59,8.72,8.72,0,0,1,0,8.69,7.86,7.86,0,0,1-3,2.61,13.12,13.12,0,0,1-4.06,1.26,29.43,29.43,0,0,1-8.79,0A13,13,0,0,1,5,228.06a8,8,0,0,1-3-2.61,8.65,8.65,0,0,1,0-8.69Zm1.76,7.72a7,7,0,0,0,2.7,1.9,13.3,13.3,0,0,0,3.5.86,31.66,31.66,0,0,0,3.47.21,31.4,31.4,0,0,0,3.48-.21,13.59,13.59,0,0,0,3.5-.86,6.93,6.93,0,0,0,2.71-1.9,5.78,5.78,0,0,0,0-6.73,6.83,6.83,0,0,0-2.71-1.9,13.59,13.59,0,0,0-3.5-.86,31.4,31.4,0,0,0-3.48-.21,31.66,31.66,0,0,0-3.47.21,13.3,13.3,0,0,0-3.5.86,6.94,6.94,0,0,0-2.7,1.9,5.78,5.78,0,0,0,0,6.73Z"/><path class="cls-1" d="M5.58,205.38a5.55,5.55,0,0,0-.57-2,3.8,3.8,0,0,0-1.39-1.43,6.91,6.91,0,0,0-2.6-.83v-1.78h24.5v2.21H7.32V208H5.74C5.72,207,5.66,206.16,5.58,205.38Z"/><path class="cls-1" d="M9.45,190.32H7.52l8.2-17.78h1.89l8.15,17.78H23.87l-7.21-15.61Z"/><path class="cls-1" d="M.43,151.33v-6l25.19-8.91v5.71l-5.18,1.66v9.27l5.18,1.71v5.51Zm15.67.34v-6.45L6.18,148.4Z"/><path class="cls-1" d="M9.23,117.74a10.7,10.7,0,0,1,6.83-2.09,12,12,0,0,1,7.2,2.06,7.49,7.49,0,0,1,1.93,9.48A7.39,7.39,0,0,1,23.27,129h2.35v4.81H.46V129h9a7.35,7.35,0,0,1-2-2,6.11,6.11,0,0,1-.85-3.37A7,7,0,0,1,9.23,117.74Zm11.34,4.07a6.87,6.87,0,0,0-4-1,8.87,8.87,0,0,0-3.29.52,3.6,3.6,0,0,0-2.46,3.62,3.67,3.67,0,0,0,2.41,3.67,9.12,9.12,0,0,0,3.32.51,6.84,6.84,0,0,0,4-1.07,3.65,3.65,0,0,0,1.58-3.25A3.37,3.37,0,0,0,20.57,121.81Z"/><path class="cls-1" d="M23.34,96.73q2.91,2.35,2.91,7.16t-2.91,7.16a10.75,10.75,0,0,1-7,2.36,10.82,10.82,0,0,1-7-2.36q-3-2.35-2.95-7.16t3-7.16a10.88,10.88,0,0,1,7-2.36A10.8,10.8,0,0,1,23.34,96.73Zm-2.7,3.9a7.06,7.06,0,0,0-4.31-1.15A7,7,0,0,0,12,100.63a4.33,4.33,0,0,0,0,6.57,7,7,0,0,0,4.31,1.15,7,7,0,0,0,4.31-1.15,4.31,4.31,0,0,0,0-6.57Z"/><path class="cls-1" d="M7,86H18.22a5.9,5.9,0,0,0,2.39-.37A2.59,2.59,0,0,0,22,83.06a3.4,3.4,0,0,0-2-3.4,7.28,7.28,0,0,0-2.89-.48H7V74.24H25.62V79H23l.52.34a3.53,3.53,0,0,1,.75.64,6.8,6.8,0,0,1,1.4,2.21,7.51,7.51,0,0,1,.38,2.5c0,2.75-1,4.6-3,5.55a11.27,11.27,0,0,1-4.83.8H7Z"/><path class="cls-1" d="M10.63,71.42H7.16v-2.6H2V64h5.2V61h3.47v3h9.84c.77,0,1.24-.09,1.43-.29a3.15,3.15,0,0,0,.28-1.77c0-.15,0-.31,0-.47s0-.33,0-.49h3.64l.08,2.31Q26,66.74,24.68,68a3.55,3.55,0,0,1-2.58.82H10.63Z"/><path class="cls-1" d="M7.06,24.89a5.37,5.37,0,0,1,1.67-2.17,5.28,5.28,0,0,1,2.39-1.06,16,16,0,0,1,2.75-.17l11.75,0v5H13.76a3.9,3.9,0,0,0-1.75.34,2.44,2.44,0,0,0-1.3,2.39A2.8,2.8,0,0,0,12.39,32a5.26,5.26,0,0,0,2.13.39h11.1v4.91H14.52a6.24,6.24,0,0,0-2.41.34,2.38,2.38,0,0,0-1.35,2.41,2.87,2.87,0,0,0,1.35,2.8,5.27,5.27,0,0,0,2.29.39H25.62v4.94H7V43.48H9.74a7.67,7.67,0,0,1-2.07-1.71A5.82,5.82,0,0,1,6.58,38.1a5.81,5.81,0,0,1,.94-3.46A5.48,5.48,0,0,1,9.76,33a6.13,6.13,0,0,1-2.41-2.38,7.16,7.16,0,0,1-.77-3.35A6.41,6.41,0,0,1,7.06,24.89Z"/><path class="cls-1" d="M7.37,4.87a7.6,7.6,0,0,1,2.75-3.22A9.12,9.12,0,0,1,14,.17,22.14,22.14,0,0,1,17.67,0V13.57a4.44,4.44,0,0,0,3.93-2,4.89,4.89,0,0,0,.7-2.68,4.1,4.1,0,0,0-.85-2.7,4.12,4.12,0,0,0-1.29-1v-5a6,6,0,0,1,3.37,1.81,9,9,0,0,1,2.72,7A10.23,10.23,0,0,1,24,15.64q-2.3,2.84-7.46,2.84c-3.23,0-5.7-.86-7.43-2.57A9,9,0,0,1,6.49,9.25,10.48,10.48,0,0,1,7.37,4.87Zm4.2,7.29a5.07,5.07,0,0,0,2.89,1.29V5.06a4.06,4.06,0,0,0-3,1.3,4.27,4.27,0,0,0-1,2.89A3.87,3.87,0,0,0,11.57,12.16Z"/></g></g></svg>