<svg xmlns="http://www.w3.org/2000/svg" viewBox="0 0 26.37 230.12"><defs><style>.cls-1{fill:#4d4d4d;}</style></defs><g id="レイヤー_2" data-name="レイヤー 2"><g id="レイヤー_1-2" data-name="レイヤー 1"><path class="cls-1" d="M17.66,230.12H15.77L7.58,212.34H9.5L16.71,228l7.21-15.61h1.89Z"/><path class="cls-1" d="M.05,200.4v-1.78l26,10.67v1.86Z"/><path class="cls-1" d="M2,185a8.22,8.22,0,0,1,3-2.59,13.67,13.67,0,0,1,4.06-1.26,29.43,29.43,0,0,1,8.79,0,13.58,13.58,0,0,1,4.06,1.26,8.07,8.07,0,0,1,3,2.59,8.74,8.74,0,0,1,0,8.7,8,8,0,0,1-3,2.61,13,13,0,0,1-4.06,1.26,30,30,0,0,1-4.38.33,30.37,30.37,0,0,1-4.41-.33A13.12,13.12,0,0,1,5,196.29a8.09,8.09,0,0,1-3-2.61A8.67,8.67,0,0,1,2,185ZM3.8,192.7a6.86,6.86,0,0,0,2.69,1.91,13.39,13.39,0,0,0,3.5.86,31.66,31.66,0,0,0,3.47.21,31.4,31.4,0,0,0,3.48-.21,13.49,13.49,0,0,0,3.5-.86,6.78,6.78,0,0,0,2.71-1.91,5.72,5.72,0,0,0,0-6.72,6.88,6.88,0,0,0-2.71-1.91,13.49,13.49,0,0,0-3.5-.85,31.4,31.4,0,0,0-3.48-.21,31.66,31.66,0,0,0-3.47.21,13.39,13.39,0,0,0-3.5.85A7,7,0,0,0,3.8,186a5.72,5.72,0,0,0,0,6.72Z"/><path class="cls-1" d="M1.07,167.22v-2H17.62v-3.68h1.86v3.68h6.09v2H19.48v11.3H17.34Zm3.22,0v.07l13.33,9.24v-9.31Z"/><path class="cls-1" d="M9.5,158.54H7.58l8.19-17.78h1.89l8.15,17.78H23.92l-7.21-15.61Z"/><path class="cls-1" d="M3.11,124.35A10.38,10.38,0,0,1,0,116.61q0-6.3,4.17-9.2a9.12,9.12,0,0,1,4.7-1.73V111a7,7,0,0,0-2.73,1.29,5.7,5.7,0,0,0,.67,8.6,11.32,11.32,0,0,0,6.55,1.63c2.83,0,4.95-.58,6.35-1.72a5.35,5.35,0,0,0,2.11-4.35A4.93,4.93,0,0,0,20,112.27,7.9,7.9,0,0,0,17.09,111v-5.23a11.41,11.41,0,0,1,6.7,3.46,10.08,10.08,0,0,1,2.58,7.13,10.67,10.67,0,0,1-3.49,8.45q-3.49,3.08-9.6,3.08Q6.68,127.85,3.11,124.35Z"/><path class="cls-1" d="M23.39,86.34Q26.3,88.7,26.3,93.5t-2.91,7.16a10.8,10.8,0,0,1-7,2.36,10.85,10.85,0,0,1-7-2.36q-3-2.35-3-7.16t3-7.16a10.85,10.85,0,0,1,7-2.36A10.8,10.8,0,0,1,23.39,86.34ZM20.7,90.23a7.08,7.08,0,0,0-4.32-1.14,7,7,0,0,0-4.31,1.14,4.34,4.34,0,0,0,0,6.58A7,7,0,0,0,16.38,98a7.07,7.07,0,0,0,4.32-1.15,4.32,4.32,0,0,0,0-6.58Z"/><path class="cls-1" d="M8.11,65.47q1.52-1.83,5-1.83H25.67v5H14.34a5.24,5.24,0,0,0-2.26.39,2.76,2.76,0,0,0-1.43,2.72,3.36,3.36,0,0,0,2.1,3.37,7.22,7.22,0,0,0,2.84.48H25.67v4.87H7.08V75.74H9.79A8.39,8.39,0,0,1,7.72,74,6.13,6.13,0,0,1,6.6,70.18,7.14,7.14,0,0,1,8.11,65.47Z"/><path class="cls-1" d="M10.68,61H7.21v-2.6H2V53.61H7.21v-3h3.47v3h9.84A2.24,2.24,0,0,0,22,53.32a3.19,3.19,0,0,0,.28-1.78v-.47l0-.48h3.64l.09,2.3c.07,2.3-.32,3.88-1.2,4.72a3.55,3.55,0,0,1-2.58.82H10.68Z"/><path class="cls-1" d="M14.34,40.08a8.13,8.13,0,0,0-.43-1.95,1.46,1.46,0,0,0-1.38-1.05,1.63,1.63,0,0,0-1.58.81,5.12,5.12,0,0,0-.44,2.37,3.12,3.12,0,0,0,.85,2.47,3.61,3.61,0,0,0,1.71.7v4.69a7.1,7.1,0,0,1-4-1.37Q6.6,44.82,6.6,40.09a11.89,11.89,0,0,1,1.21-5.46Q9,32.24,12.39,32.25h8.55c.59,0,1.31,0,2.15,0a2.66,2.66,0,0,0,1.3-.29,1.79,1.79,0,0,0,.56-.71h.72V36.5a5.62,5.62,0,0,1-1.06.31c-.33.06-.71.1-1.13.14a9.69,9.69,0,0,1,1.86,2.34,7,7,0,0,1,.91,3.57,6.16,6.16,0,0,1-1.44,4.2,5.14,5.14,0,0,1-4.1,1.66,5.3,5.3,0,0,1-5-2.67,11.85,11.85,0,0,1-1.2-4.3Zm2.27-3a5.59,5.59,0,0,1,.47.95,7.54,7.54,0,0,1,.33,1.3l.21,1.11a7,7,0,0,0,.67,2.24,2.21,2.21,0,0,0,2.06,1.15,2.16,2.16,0,0,0,1.81-.7,2.68,2.68,0,0,0,.55-1.71,5.14,5.14,0,0,0-.92-2.94,3.93,3.93,0,0,0-3.37-1.4Z"/><path class="cls-1" d="M13.72,16.85a4.42,4.42,0,0,0-1.88.7,3,3,0,0,0-1.12,2.56,3.35,3.35,0,0,0,2.44,3.37A10.11,10.11,0,0,0,16.6,24a9.3,9.3,0,0,0,3.29-.48,3.26,3.26,0,0,0,2.33-3.29,2.89,2.89,0,0,0-.93-2.43,4.62,4.62,0,0,0-2.39-.88v-5a8.23,8.23,0,0,1,4.21,1.61,7.82,7.82,0,0,1,3.19,6.79q0,4.5-2.66,6.62a10.76,10.76,0,0,1-6.92,2.12q-4.78,0-7.46-2.34A8.18,8.18,0,0,1,6.6,20.24,9.73,9.73,0,0,1,8.17,14.5q1.58-2.23,5.55-2.64Z"/><path class="cls-1" d="M10.68,10.44H7.21V7.84H2V3H7.21V0h3.47V3h9.84c.77,0,1.24-.09,1.43-.29A3.15,3.15,0,0,0,22.23,1V.49l0-.49h3.64l.09,2.31c.07,2.3-.32,3.87-1.2,4.71a3.55,3.55,0,0,1-2.58.82H10.68Z"/></g></g></svg>