<svg xmlns="http://www.w3.org/2000/svg" xmlns:xlink="http://www.w3.org/1999/xlink" viewBox="0 0 400 414.09"><defs><style>.cls-1{fill:#363f48;}.cls-2{clip-path:url(#clip-path);}.cls-3{fill:#333;}.cls-4{fill:none;stroke:#395a75;stroke-miterlimit:10;stroke-width:3px;}.cls-5{fill:#fff;}.cls-6{fill:aqua;}.cls-7{fill:#2e3192;}</style><clipPath id="clip-path"><circle class="cls-1" cx="200" cy="200" r="200"/></clipPath></defs><g id="レイヤー_2" data-name="レイヤー 2"><g id="レイヤー_1-2" data-name="レイヤー 1"><circle class="cls-1" cx="200" cy="200" r="200"/><g class="cls-2"><path class="cls-3" d="M317.63,209.89a119.64,119.64,0,1,0-227.88-70l-33,119.16h31.2l7.56,68.08,57.69.95v85.1c77.53,7.57,148.45-36.87,148.45-36.87l-16.07-91.73Z"/></g><path class="cls-4" d="M205.08,74.93s9-11.13,26.12-11.13,36.24,14,54,31.69c20.56,20.56,3,45.83,3,45.83,4.71,23.55-2.29,30.41-10.28,33.4-10.28,3.86-24.84-.85-24.84-.85s1.29,8.56,4.71,13.7a142.91,142.91,0,0,0,9,11.56H241.48c-9.42-7.28-13.71-24.84-13.71-24.84-9,5.57-23.12,0-23.12,0-13.28,11.14-36,12-52.25,6.86s-21-23.56-20.56-37.69,8.57-18.85,8.57-18.85-8.14-6.85-8.14-17.56,9.85-21,19.7-24.84,20.56-.85,20.56-.85,5.56-9.42,14.13-11.57C198.65,66.8,205.08,74.93,205.08,74.93Z"/><path class="cls-4" d="M196.08,119.9c1.29-9.85,18.85-12,21.84-4.28"/><path class="cls-4" d="M205.08,74.93c-16.71,19.7-.86,36-.86,36"/><path class="cls-4" d="M221.35,96.35c25.7-9.85,34.26,13.7,34.26,13.7"/><path class="cls-4" d="M264.61,104.91c-6.43,2.14-12.42,6.86-10.71,15s5.82,12,14.13,12a25.88,25.88,0,0,1,20.13,9.43"/><path class="cls-4" d="M264.18,154.59c-6.85-9.85-14.14-7.71-25.27-5.56s-20.56-6.43-21.84-16.71"/><path class="cls-4" d="M204.65,174.29c11.13-10.27,18.84-29.55,18.84-29.55"/><path class="cls-4" d="M174.24,184.14c-10.28-3.42-14.13-11.56-9-23.55s.42-18-8.14-14.13"/><path class="cls-4" d="M186.23,142.6c-3.85-19.27-18-23.55-27-23.55s-18.84,5.56-18.84,5.56"/><path class="cls-4" d="M162.25,101.06c13.27,2.57,14.13,15,7.71,19.7"/><path class="cls-5" d="M134.5,136.12c-28.89,0-42.25,26.8-42.25,26.8s13.36,26.79,42.25,26.79,42.26-26.79,42.26-26.79S163.4,136.12,134.5,136.12Z"/><circle class="cls-6" cx="134.5" cy="162.92" r="21.48"/><circle class="cls-7" cx="134.5" cy="162.92" r="9.63"/></g></g></svg>