<svg xmlns="http://www.w3.org/2000/svg" viewBox="0 0 166.33 138.34"><defs><style>.cls-1{fill:none;stroke:#395a75;stroke-miterlimit:10;stroke-width:3px;}</style></defs><g id="レイヤー_2" data-name="レイヤー 2"><g id="レイヤー_1-2" data-name="レイヤー 1"><path class="cls-1" d="M74.76,12.64s9-11.14,26.13-11.14,36.24,14,54,31.69c20.56,20.56,3,45.83,3,45.83,4.71,23.55-2.29,30.41-10.28,33.4-10.28,3.86-24.84-.85-24.84-.85s1.28,8.56,4.71,13.7a144.84,144.84,0,0,0,9,11.57H111.17C101.74,129.56,97.46,112,97.46,112c-9,5.56-23.13,0-23.13,0-13.27,11.13-36,12-52.25,6.85S1.1,95.29,1.53,81.16s8.56-18.84,8.56-18.84S2,55.46,2,44.76s9.86-21,19.71-24.84,20.55-.86,20.55-.86S47.78,9.64,56.35,7.5C68.34,4.5,74.76,12.64,74.76,12.64Z"/><path class="cls-1" d="M65.77,57.6c1.28-9.85,18.84-12,21.84-4.28"/><path class="cls-1" d="M74.76,12.64c-16.7,19.7-.85,36-.85,36"/><path class="cls-1" d="M91,34.05c25.69-9.85,34.26,13.7,34.26,13.7"/><path class="cls-1" d="M134.29,42.61c-6.42,2.15-12.42,6.86-10.7,15s5.81,12,14.13,12A25.88,25.88,0,0,1,157.85,79"/><path class="cls-1" d="M133.86,92.3c-6.85-9.86-14.13-7.71-25.26-5.57S88,80.3,86.75,70"/><path class="cls-1" d="M74.33,112c11.14-10.28,18.85-29.56,18.85-29.56"/><path class="cls-1" d="M43.93,121.85c-10.28-3.43-14.14-11.57-9-23.56s.43-18-8.14-14.13"/><path class="cls-1" d="M55.92,80.3c-3.86-19.27-18-23.55-27-23.55s-18.85,5.57-18.85,5.57"/><path class="cls-1" d="M31.93,38.76c13.28,2.57,14.14,15,7.71,19.7"/></g></g></svg>