<svg xmlns="http://www.w3.org/2000/svg" xmlns:xlink="http://www.w3.org/1999/xlink" viewBox="0 0 250 258.81"><defs><style>.cls-1{fill:none;}.cls-2{fill:#363f48;}.cls-3{clip-path:url(#clip-path);}.cls-4{fill:#f15a24;}.cls-5{fill:#00ff42;}.cls-6{fill:#fff;}.cls-7{fill:aqua;}.cls-8{fill:#2e3192;}</style><clipPath id="clip-path"><circle class="cls-1" cx="125" cy="125" r="125"/></clipPath></defs><g id="レイヤー_2" data-name="レイヤー 2"><g id="レイヤー_1-2" data-name="レイヤー 1"><circle class="cls-2" cx="125" cy="125" r="125"/><g class="cls-3"><path class="cls-4" d="M198.52,131.18A74.78,74.78,0,1,0,56.09,87.46L35.46,161.93H55l4.73,42.55,36.05.6v53.18c48.46,4.73,92.79-23,92.79-23l-10.05-57.33Z"/></g><circle class="cls-5" cx="84.3" cy="91.44" r="50.49"/><path class="cls-6" d="M84.3,67.05c-26.3,0-38.46,24.39-38.46,24.39S58,115.83,84.3,115.83s38.46-24.39,38.46-24.39S110.6,67.05,84.3,67.05Z"/><circle class="cls-7" cx="84.3" cy="91.44" r="19.55"/><circle class="cls-8" cx="84.3" cy="91.44" r="8.76"/></g></g></svg>