<svg xmlns="http://www.w3.org/2000/svg" viewBox="0 0 33.26 423.46"><defs><style>.cls-1{fill:#4d4d4d;}</style></defs><g id="レイヤー_2" data-name="レイヤー 2"><g id="レイヤー_1-2" data-name="レイヤー 1"><path class="cls-1" d="M17.91,423.46H16L7.83,405.68H9.76L17,421.29l7.21-15.61h1.89Z"/><path class="cls-1" d="M.31,393.74V392l26,10.67v1.86Z"/><path class="cls-1" d="M2.29,378.32a8.22,8.22,0,0,1,3-2.59,13.58,13.58,0,0,1,4.06-1.26,29.36,29.36,0,0,1,8.78,0,13.49,13.49,0,0,1,4.06,1.26,8,8,0,0,1,3,2.59,8.8,8.8,0,0,1,0,8.7,7.9,7.9,0,0,1-3,2.61,13,13,0,0,1-4.06,1.26,29.36,29.36,0,0,1-8.78,0,13,13,0,0,1-4.06-1.26,8.09,8.09,0,0,1-3-2.61,8.61,8.61,0,0,1,0-8.7ZM4.05,386A7,7,0,0,0,6.75,388a13.3,13.3,0,0,0,3.5.86,31.49,31.49,0,0,0,3.46.21,31.43,31.43,0,0,0,3.49-.21,13.59,13.59,0,0,0,3.5-.86A6.85,6.85,0,0,0,23.41,386a5.77,5.77,0,0,0,0-6.72,7,7,0,0,0-2.71-1.91,13.59,13.59,0,0,0-3.5-.85,31.43,31.43,0,0,0-3.49-.21,31.49,31.49,0,0,0-3.46.21,13.29,13.29,0,0,0-3.5.85,7.07,7.07,0,0,0-2.7,1.91,5.77,5.77,0,0,0,0,6.72Z"/><path class="cls-1" d="M25.82,371.69a8.51,8.51,0,0,1-3.22-.63,9.36,9.36,0,0,1-2.52-1.57,15.36,15.36,0,0,1-2-2.21c-.62-.81-1.22-1.65-1.79-2.52S15.1,363,14.5,362.19a16.1,16.1,0,0,0-1.91-2.29,7.51,7.51,0,0,0-2.08-1.53,6,6,0,0,0-2.54-.5,4.77,4.77,0,0,0-2.11.44,4.55,4.55,0,0,0-1.58,1.19,5.08,5.08,0,0,0-1,1.75A6.66,6.66,0,0,0,3,363.36a5.48,5.48,0,0,0,.56,2.57A4.78,4.78,0,0,0,5,367.67a6.47,6.47,0,0,0,2.17,1,9.54,9.54,0,0,0,2.59.26v2.21a11.69,11.69,0,0,1-3.48-.44,7.47,7.47,0,0,1-2.75-1.45,6.72,6.72,0,0,1-1.8-2.47,8.68,8.68,0,0,1-.65-3.48,10,10,0,0,1,.44-3,7.09,7.09,0,0,1,1.3-2.41A5.78,5.78,0,0,1,5,356.24a7.41,7.41,0,0,1,3-.58,7.39,7.39,0,0,1,2.8.51,9,9,0,0,1,2.31,1.36,13.4,13.4,0,0,1,1.94,2,22.68,22.68,0,0,1,1.66,2.32c.4.59.84,1.27,1.32,2.07a22.29,22.29,0,0,0,1.59,2.29,12.53,12.53,0,0,0,1.91,1.94,4.84,4.84,0,0,0,2.25,1.05V355.56h2Z"/><path class="cls-1" d="M9.76,351.88H7.83L16,334.1h1.89l8.16,17.78H24.18L17,336.27Z"/><path class="cls-1" d="M18.15,316.3a5.06,5.06,0,0,0,2.58-1q1.56-1.3,1.56-4.48a9.74,9.74,0,0,0-.41-3.09A2.94,2.94,0,0,0,19,305.52a2.17,2.17,0,0,0-1.93,1.1,12.07,12.07,0,0,0-1.18,3.5l-.6,2.73a16.76,16.76,0,0,1-1.93,5.52,6.14,6.14,0,0,1-5.45,2.55,7.24,7.24,0,0,1-5.62-2.49C.75,316.76,0,314.33,0,311.11a11.21,11.21,0,0,1,2.11-6.88,7.49,7.49,0,0,1,6.13-3v5.05a3.62,3.62,0,0,0-3.23,2,7,7,0,0,0-.63,3.13,6,6,0,0,0,.82,3.33,2.59,2.59,0,0,0,2.29,1.25,2.15,2.15,0,0,0,2-1.23,14.65,14.65,0,0,0,1-3.35l1.05-4.42a11,11,0,0,1,1.83-4.35,6.14,6.14,0,0,1,5.14-2.26,7.22,7.22,0,0,1,5.73,2.67q2.28,2.67,2.28,7.54c0,3.32-.74,5.93-2.24,7.83a7.44,7.44,0,0,1-6.18,2.85Z"/><path class="cls-1" d="M.82,297.2v-4.79H14.41l-7-6.14v-6.06l6.94,6.68L25.93,280v5.93l-8,4.51,2.09,2h5.87v4.79Z"/><path class="cls-1" d="M5.08,272.67v4.94H.58v-4.94Zm2.22,4.94v-4.94H25.93v4.94Z"/><path class="cls-1" d="M25.93,263v4.87H.73V263Z"/><path class="cls-1" d="M25.93,253.26v4.87H.73v-4.87Z"/><path class="cls-1" d="M20,244.73a3.23,3.23,0,0,0,1.84-.67,4.55,4.55,0,0,0,1-3.37,5.08,5.08,0,0,0-.43-2.29,1.43,1.43,0,0,0-2.53-.16,28.52,28.52,0,0,0-1.47,5.09,10.65,10.65,0,0,1-2,4.48,4.3,4.3,0,0,1-3.35,1.3,5.83,5.83,0,0,1-4.44-2,8.22,8.22,0,0,1-1.85-5.72,10.5,10.5,0,0,1,1.39-5.69A6,6,0,0,1,13,233.14V238a3,3,0,0,0-1.49.53,3.37,3.37,0,0,0-1,2.75,4,4,0,0,0,.5,2.27,1.42,1.42,0,0,0,1.16.67,1.26,1.26,0,0,0,1.21-.72,29.37,29.37,0,0,0,1.35-5.08,9.34,9.34,0,0,1,2.07-4.36,4.7,4.7,0,0,1,3.51-1.44,5.68,5.68,0,0,1,4.52,2.06c1.16,1.38,1.75,3.51,1.75,6.38s-.62,5.1-1.86,6.5a6,6,0,0,1-4.72,2.1Z"/><path class="cls-1" d="M15.4,218.57a12.39,12.39,0,0,1-3.22-3.7l-.32-.53A10.45,10.45,0,0,1,9.34,216a6.19,6.19,0,0,1-2.67.59,5.29,5.29,0,0,1-4.3-1.86,7.37,7.37,0,0,1-1.55-4.85,6.45,6.45,0,0,1,1.59-4.48,5.15,5.15,0,0,1,4.05-1.78,5.79,5.79,0,0,1,3.62,1.07,10.38,10.38,0,0,1,2.57,3.12L17,204.23a7,7,0,0,0-1.93-1,7.31,7.31,0,0,0-2.21-.36v-4.32a13.82,13.82,0,0,1,4.65,1.11,12.87,12.87,0,0,1,2.91,1.77l5.47-4.57v5.89l-2.14,1.75a10.88,10.88,0,0,1,1.75,2.39,9.71,9.71,0,0,1,1,4.54,8,8,0,0,1-2.26,6.05,7,7,0,0,1-5,2.17A6.65,6.65,0,0,1,15.4,218.57Zm-7.46-6.91a20,20,0,0,0,1.76-1.38,8.94,8.94,0,0,0-1.22-1.53,2.83,2.83,0,0,0-2-.88,2.06,2.06,0,0,0-1.4.53A2,2,0,0,0,4.46,210a2.36,2.36,0,0,0,.36,1.26,1.81,1.81,0,0,0,1.68.89A2.69,2.69,0,0,0,7.94,211.66Zm13.49,2.14a3.53,3.53,0,0,0,1-2.65,5,5,0,0,0-.55-2.3,6.79,6.79,0,0,0-1.22-1.77L15,211.8a8.36,8.36,0,0,0,2.14,2.44,3.66,3.66,0,0,0,2,.6A3.17,3.17,0,0,0,21.43,213.8Z"/><path class="cls-1" d="M5.2,165.3v13.33h5.34V166.39h4.38v12.24H21.4V164.68h4.53v19.09H.73V165.3Z"/><path class="cls-1" d="M25.93,162.83l-9.44-6.36-9.16,6.08v-6l5.4-3.11-5.4-3v-5.8l9.08,6.12,9.52-6.36v6.07l-5.61,3.21,5.61,3.23Z"/><path class="cls-1" d="M9.3,125.84q2.4-2.28,7.07-2.28c3.28,0,5.78.75,7.5,2.23a7.22,7.22,0,0,1,2.59,5.74,6,6,0,0,1-1.12,3.71,6.94,6.94,0,0,1-1.79,1.58h9.71v4.82H7.3V137h2.75a7.89,7.89,0,0,1-1.92-1.69,6.21,6.21,0,0,1-1.24-3.88A7.37,7.37,0,0,1,9.3,125.84Zm3.5,3.74a3.46,3.46,0,0,0-1.66,3.22,3.67,3.67,0,0,0,2.51,3.68A9.59,9.59,0,0,0,17,137c2.16,0,3.68-.59,4.56-1.75a4,4,0,0,0,.77-2.45,3.55,3.55,0,0,0-1.57-3.13,7.29,7.29,0,0,0-4.19-1.08A7.31,7.31,0,0,0,12.8,129.58Z"/><path class="cls-1" d="M7.67,108a7.7,7.7,0,0,1,2.76-3.22,9.12,9.12,0,0,1,3.85-1.48,23.28,23.28,0,0,1,3.7-.16v13.56a4.44,4.44,0,0,0,3.93-2,4.89,4.89,0,0,0,.7-2.68,3.78,3.78,0,0,0-2.14-3.71v-5a6,6,0,0,1,3.37,1.81,9,9,0,0,1,2.72,7,10.23,10.23,0,0,1-2.29,6.57q-2.3,2.83-7.46,2.84c-3.23,0-5.7-.86-7.43-2.57a9,9,0,0,1-2.58-6.66A10.64,10.64,0,0,1,7.67,108Zm4.21,7.29a5.07,5.07,0,0,0,2.89,1.29v-8.39a4.06,4.06,0,0,0-2.95,1.3,4.27,4.27,0,0,0-1,2.89A3.87,3.87,0,0,0,11.88,115.28Z"/><path class="cls-1" d="M6.86,90.32q0-.1,0-.42h5c0,.3-.06.58-.07.82s0,.43,0,.58c0,2,.64,3.27,1.92,4a7.5,7.5,0,0,0,3.31.56h8.91v4.9H7.3V96.07h3.24A10.31,10.31,0,0,1,8,94.1a5.32,5.32,0,0,1-1.15-3.55C6.85,90.45,6.86,90.38,6.86,90.32Z"/><path class="cls-1" d="M5.08,82V87H.58V82ZM7.3,87V82H25.93V87Z"/><path class="cls-1" d="M7.67,65.18A7.7,7.7,0,0,1,10.43,62a9.12,9.12,0,0,1,3.85-1.48,23.28,23.28,0,0,1,3.7-.16V73.88a4.44,4.44,0,0,0,3.93-1.95,4.89,4.89,0,0,0,.7-2.68,3.78,3.78,0,0,0-2.14-3.71v-5a6,6,0,0,1,3.37,1.81,9,9,0,0,1,2.72,7A10.23,10.23,0,0,1,24.27,76q-2.3,2.83-7.46,2.84c-3.23,0-5.7-.86-7.43-2.57A9,9,0,0,1,6.8,69.56,10.64,10.64,0,0,1,7.67,65.18Zm4.21,7.29a5.07,5.07,0,0,0,2.89,1.29V65.37a4.06,4.06,0,0,0-2.95,1.3,4.27,4.27,0,0,0-1,2.89A3.87,3.87,0,0,0,11.88,72.47Z"/><path class="cls-1" d="M8.37,42.83c1-1.22,2.68-1.83,5-1.83H25.93v5H14.59a5.19,5.19,0,0,0-2.25.39A2.75,2.75,0,0,0,10.9,49.1,3.35,3.35,0,0,0,13,52.47a7.16,7.16,0,0,0,2.83.48H25.93v4.87H7.33V53.1h2.72A8,8,0,0,1,8,51.33a6.14,6.14,0,0,1-1.13-3.79A7.14,7.14,0,0,1,8.37,42.83Z"/><path class="cls-1" d="M14,25.33a4.37,4.37,0,0,0-1.88.7A3,3,0,0,0,11,28.59,3.36,3.36,0,0,0,13.42,32a10.11,10.11,0,0,0,3.44.48A9.34,9.34,0,0,0,20.15,32a3.25,3.25,0,0,0,2.32-3.29,2.89,2.89,0,0,0-.92-2.43,4.62,4.62,0,0,0-2.39-.88v-5A8.17,8.17,0,0,1,23.36,22a7.82,7.82,0,0,1,3.2,6.79q0,4.5-2.67,6.62A10.73,10.73,0,0,1,17,37.53c-3.2,0-5.68-.78-7.46-2.34a8.16,8.16,0,0,1-2.67-6.47A9.73,9.73,0,0,1,8.43,23c1-1.48,2.9-2.37,5.55-2.64Z"/><path class="cls-1" d="M7.67,4.87a7.7,7.7,0,0,1,2.76-3.22A9.12,9.12,0,0,1,14.28.17,22.14,22.14,0,0,1,18,0V13.57a4.44,4.44,0,0,0,3.93-2,4.89,4.89,0,0,0,.7-2.68,4.15,4.15,0,0,0-.85-2.7,4.12,4.12,0,0,0-1.29-1v-5a6,6,0,0,1,3.37,1.81,9,9,0,0,1,2.72,7,10.23,10.23,0,0,1-2.29,6.57q-2.3,2.84-7.46,2.84c-3.23,0-5.7-.86-7.43-2.57A9,9,0,0,1,6.8,9.25,10.64,10.64,0,0,1,7.67,4.87Zm4.21,7.29a5.07,5.07,0,0,0,2.89,1.29V5.06a4.06,4.06,0,0,0-2.95,1.3,4.27,4.27,0,0,0-1,2.89A3.87,3.87,0,0,0,11.88,12.16Z"/></g></g></svg>