<svg xmlns="http://www.w3.org/2000/svg" viewBox="0 0 26.25 206.34"><defs><style>.cls-1{fill:#4d4d4d;}</style></defs><g id="レイヤー_2" data-name="レイヤー 2"><g id="レイヤー_1-2" data-name="レイヤー 1"><path class="cls-1" d="M17.61,206.34H15.72l-8.2-17.78H9.45l7.21,15.61,7.21-15.61h1.89Z"/><path class="cls-1" d="M0,176.63v-1.79l26,10.68v1.85Z"/><path class="cls-1" d="M2,161.21a8.12,8.12,0,0,1,3-2.59A13,13,0,0,1,9,157.36a30,30,0,0,1,4.38-.33,30.37,30.37,0,0,1,4.41.33,13.12,13.12,0,0,1,4.06,1.26,8,8,0,0,1,3,2.59,8.74,8.74,0,0,1,0,8.7,8,8,0,0,1-3,2.61,13.12,13.12,0,0,1-4.06,1.26,29.43,29.43,0,0,1-8.79,0A13,13,0,0,1,5,172.52a8.09,8.09,0,0,1-3-2.61,8.67,8.67,0,0,1,0-8.7Zm1.76,7.72a7,7,0,0,0,2.7,1.91,13.29,13.29,0,0,0,3.5.85,31.66,31.66,0,0,0,3.47.21,31.4,31.4,0,0,0,3.48-.21,13.59,13.59,0,0,0,3.5-.85,6.85,6.85,0,0,0,2.71-1.91,5.77,5.77,0,0,0,0-6.72,6.85,6.85,0,0,0-2.71-1.91,13.59,13.59,0,0,0-3.5-.86,31.4,31.4,0,0,0-3.48-.21,31.66,31.66,0,0,0-3.47.21,13.3,13.3,0,0,0-3.5.86,7,7,0,0,0-2.7,1.91,5.77,5.77,0,0,0,0,6.72Z"/><path class="cls-1" d="M20.37,152.15a5.62,5.62,0,0,0,2-1.19,5.4,5.4,0,0,0,1.31-2,7,7,0,0,0,.47-2.65,7.62,7.62,0,0,0-.35-2.34,6,6,0,0,0-1-2,5.19,5.19,0,0,0-1.71-1.4,5,5,0,0,0-2.31-.52,5.35,5.35,0,0,0-2.29.45,4.66,4.66,0,0,0-1.61,1.26,5.69,5.69,0,0,0-1,1.88,8,8,0,0,0-.31,2.29v1.85H11.72V146a5.91,5.91,0,0,0-.26-1.73,4.86,4.86,0,0,0-.8-1.61,4.33,4.33,0,0,0-1.39-1.18,4.12,4.12,0,0,0-2-.45,4.67,4.67,0,0,0-2.08.42,4.15,4.15,0,0,0-1.44,1.15,4.92,4.92,0,0,0-.84,1.7,8.12,8.12,0,0,0-.26,2.08,5.94,5.94,0,0,0,.46,2.42,4.84,4.84,0,0,0,1.27,1.77,5.23,5.23,0,0,0,2,1.06,7.71,7.71,0,0,0,2.51.32v2.2a9.36,9.36,0,0,1-3.23-.54A7.38,7.38,0,0,1,3.1,152a7,7,0,0,1-1.68-2.43,8.11,8.11,0,0,1-.61-3.22,10.91,10.91,0,0,1,.36-2.8,7.73,7.73,0,0,1,1.12-2.43,5.71,5.71,0,0,1,1.93-1.72A5.75,5.75,0,0,1,7,138.79a5.75,5.75,0,0,1,3.47,1.07,5.15,5.15,0,0,1,2,3.06h.07a5.74,5.74,0,0,1,2-3.72,6.21,6.21,0,0,1,4-1.32,7.09,7.09,0,0,1,3.21.69,7,7,0,0,1,2.33,1.83,7.9,7.9,0,0,1,1.41,2.7,10.77,10.77,0,0,1,.48,3.22,10.24,10.24,0,0,1-.57,3.48,7.75,7.75,0,0,1-1.61,2.73,6.66,6.66,0,0,1-2.59,1.72,8.28,8.28,0,0,1-3.53.43v-2.2A7.08,7.08,0,0,0,20.37,152.15Z"/><path class="cls-1" d="M9.45,134.77H7.52L15.72,117h1.89l8.15,17.78H23.87l-7.21-15.61Z"/><path class="cls-1" d="M.43,99.56l14.42-3.33,4-.72-3.94-.73L.43,91.94V86.38l14.42-3,4-.77L15,81.84.43,78.48V73.13l25.19,7.08v5l-14.74,3L6,89.18l4.87.89,14.74,3V98L.43,105.14Z"/><path class="cls-1" d="M23.34,54.81q2.91,2.36,2.91,7.16t-2.91,7.16a10.8,10.8,0,0,1-7,2.36,10.88,10.88,0,0,1-7-2.36q-3-2.35-2.95-7.16t3-7.16a10.82,10.82,0,0,1,7-2.36A10.75,10.75,0,0,1,23.34,54.81Zm-2.7,3.89a7.06,7.06,0,0,0-4.31-1.14A7,7,0,0,0,12,58.7a4.33,4.33,0,0,0,0,6.57,7,7,0,0,0,4.31,1.16,7,7,0,0,0,4.31-1.16,4.31,4.31,0,0,0,0-6.57Z"/><path class="cls-1" d="M6.55,38.61c0-.06,0-.2,0-.41h5c0,.3-.06.58-.07.82s0,.43,0,.58c0,2,.64,3.27,1.92,3.94a7.34,7.34,0,0,0,3.31.57h8.91V49H7V44.37h3.24a10.31,10.31,0,0,1-2.54-2,5.32,5.32,0,0,1-1.15-3.55C6.54,38.75,6.55,38.68,6.55,38.61Z"/><path class="cls-1" d="M.51,35.39V30.61H14.1l-7-6.15V18.41L14,25.08l11.61-6.93v5.93l-8,4.51,2.09,2h5.87v4.78Z"/><path class="cls-1" d="M19.67,12.1a3.23,3.23,0,0,0,1.84-.67,4.55,4.55,0,0,0,1-3.37,5.08,5.08,0,0,0-.43-2.29,1.36,1.36,0,0,0-1.28-.85,1.39,1.39,0,0,0-1.25.69,28.52,28.52,0,0,0-1.47,5.09,10.65,10.65,0,0,1-2,4.48,4.28,4.28,0,0,1-3.35,1.29,5.82,5.82,0,0,1-4.44-2A8.22,8.22,0,0,1,6.46,8.73,10.47,10.47,0,0,1,7.85,3,6,6,0,0,1,12.66.51V5.38a3,3,0,0,0-1.49.53,3.37,3.37,0,0,0-1,2.75,4,4,0,0,0,.5,2.27,1.42,1.42,0,0,0,1.16.67,1.26,1.26,0,0,0,1.21-.72A29.37,29.37,0,0,0,14.4,5.8a9.34,9.34,0,0,1,2.07-4.36A4.7,4.7,0,0,1,20,0,5.68,5.68,0,0,1,24.5,2.06c1.16,1.38,1.75,3.51,1.75,6.38s-.62,5.1-1.86,6.5A6,6,0,0,1,19.67,17Z"/></g></g></svg>